<?xml version="1.0" encoding="utf-8"?><svg xmlns="http://www.w3.org/2000/svg" xmlns:xlink="http://www.w3.org/1999/xlink" width="1366" height="625" preserveAspectRatio="xMidYMid" viewBox="0 0 1366 625" style="z-index:1;margin-right:-2px;display:block;background-repeat-y:initial;background-repeat-x:initial;background-color:rgb(255, 255, 255);animation-play-state:paused" ><g transform="" style="animation-play-state:paused" ><path d="M -100 399.37 C -71.66 437.14 -78.62 447.26 -57.68 447.26 S -29.28 372.74 -15.35 372.74 S 6.99 457.45 26.97 457.45 S 51.74 399.16 69.3 399.16 S 98.13 369.93 111.62 369.93 S 136.28 391.95 153.95 391.95 S 178.52 412.3 196.27 412.3 S 221.75 384.21 238.59 384.21 S 261.9 444.74 280.92 444.74 S 304.46 440.58 323.24 440.58 S 347.39 371.45 365.57 371.45 S 390.49 371.67 407.89 371.67 S 433.87 457.3 450.22 457.3 S 479.99 401 492.54 401 S 521.84 425.59 534.86 425.59 S 556.07 439.88 577.19 439.88 S 599.9 436.61 619.51 436.61 S 641.81 441.98 661.84 441.98 S 685.89 455.06 704.16 455.06 S 730.41 377.13 746.49 377.13 S 775.82 433.24 788.81 433.24 S 812.98 388.22 831.14 388.22 S 854.76 383.32 873.46 383.32 S 897.86 410.81 915.78 410.81 S 942.54 457.96 958.11 457.96 S 988.26 399.91 1000.43 399.91 S 1024.48 421.92 1042.76 421.92 S 1070.87 412.15 1085.08 412.15 S 1109.08 384.07 1127.41 384.07 S 1154.87 411.86 1169.73 411.86 S 1194.87 456.14 1212.05 456.14 S 1237.35 401.06 1254.38 401.06 S 1281.47 442.19 1296.7 442.19 S 1325.09 402.85 1339.03 402.85 S 1367.32 396.26 1381.35 396.26 S 1409.27 408.03 1423.68 408.03 S 1452.4 391.86 1466 391.86 S 1492.84 453.14 1508.32 453.14 L 1466 625 L -100 625 Z" fill="#151e2f" stroke-width="0" transform="matrix(1,0,0,1,0,0)" style="transform:matrix(1, 0, 0, 1, 0, 0);animation-play-state:paused" ></path>
<path d="M -100 485.31 C -67.04 463.34 -69.42 540.4 -51.44 540.4 S -21.39 463.57 -2.88 463.57 S 28.09 546.15 45.67 546.15 S 72.5 457.55 94.23 457.55 S 120.48 537.59 142.79 537.59 S 170.01 513.04 191.35 513.04 S 218.53 502.43 239.91 502.43 S 266.34 565.53 288.47 565.53 S 314.05 471.9 337.02 471.9 S 366.36 506.48 385.58 506.48 S 411.46 555.19 434.14 555.19 S 465.17 568.63 482.7 568.63 S 514.48 585.99 531.26 585.99 S 562.56 460.43 579.81 460.43 S 611.45 564.48 628.37 564.48 S 660.04 479.81 676.93 479.81 S 708.33 496.18 725.49 496.18 S 754.68 494.78 774.05 494.78 S 798.63 575.06 822.6 575.06 S 851.32 488.47 871.16 488.47 S 904.42 546.25 919.72 546.25 S 948.67 488.35 968.28 488.35 S 1000.19 541.74 1016.84 541.74 S 1045.68 486.59 1065.4 486.59 S 1098.69 462.99 1113.95 462.99 S 1139.69 533.99 1162.51 533.99 S 1191.58 580.81 1211.07 580.81 S 1236.72 515.59 1259.63 515.59 S 1289.85 566.95 1308.19 566.95 S 1338.38 517.72 1356.74 517.72 S 1388.39 581.22 1405.3 581.22 S 1435.39 487.81 1453.86 487.81 S 1483.52 573.03 1502.42 573.03 L 1466 625 L -100 625 Z" fill="#1b2f58" stroke-width="0" transform="matrix(1,0,0,1,10,0)" style="transform:matrix(1, 0, 0, 1, 10, 0);animation-play-state:paused" ></path></g></svg>