<?xml version="1.0" encoding="utf-8"?><svg xmlns="http://www.w3.org/2000/svg" xmlns:xlink="http://www.w3.org/1999/xlink" width="1366" height="625" preserveAspectRatio="xMidYMid" viewBox="0 0 1366 625" style="z-index:1;margin-right:-2px;display:block;background-repeat-y:initial;background-repeat-x:initial;background-color:rgb(255, 255, 255);animation-play-state:paused" ><g transform="" style="animation-play-state:paused" ><defs style="animation-play-state:paused" ><linearGradient id="ldbk-photon-9ybnknbpz0r-lg" x1="261.8599999999999" x2="1366" y1="0" y2="0" gradientUnits="userSpaceOnUse" style="animation-play-state:paused" ><stop stop-color="#0a2855" offset="0" style="animation-play-state:paused" ></stop>

    
<stop stop-color="#0d429c" offset="1" style="animation-play-state:paused" ></stop></linearGradient>

  
<mask id="ldbk-photon-9ybnknbpz0r-mask" style="animation-play-state:paused" ><g style="animation-play-state:paused" ><path d="M1666 -0.5 L282.50021312525973 -0.5 A15 15 0 0 1 282.50021312525973 30.5 L1666 30.5" fill="#fff" transform="matrix(1,0,0,1,29.472768783569336,0)" style="transform:matrix(1, 0, 0, 1, 29.4728, 0);animation-play-state:paused" ></path>
<path d="M1422.6057215038595 -0.5 L1449.211443007719 -0.5 A15 15 0 0 1 1449.211443007719 30.5 L1422.6057215038595 30.5 A15 15 0 0 1 1422.6057215038595 -0.5" fill="#000" transform="matrix(1,0,0,1,0,0)" opacity="1" style="transform:matrix(1, 0, 0, 1, 0, 0);animation-play-state:paused" ></path>
<path d="M1666 29.5 L240.46131982270367 29.5 A15 15 0 0 0 240.46131982270367 60.5 L1666 60.5" fill="#fff" transform="matrix(1,0,0,1,-10.491735458374023,0)" style="transform:matrix(1, 0, 0, 1, -10.4917, 0);animation-play-state:paused" ></path>
<path d="M331.776751494923 29.5 L362.7309237959359 29.5 A15 15 0 0 1 362.7309237959359 60.5 L331.776751494923 60.5 A15 15 0 0 1 331.776751494923 29.5" fill="#fff" transform="matrix(1,0,0,1,0,0)" opacity="0.816327" style="transform:matrix(1, 0, 0, 1, 0, 0);opacity:0.816327;animation-play-state:paused" ></path>
<path d="M1666 59.5 L250.96985592137503 59.5 A15 15 0 0 1 250.96985592137503 90.5 L1666 90.5" fill="#fff" transform="matrix(1,0,0,1,1.4467211961746216,0)" style="transform:matrix(1, 0, 0, 1, 1.44672, 0);animation-play-state:paused" ></path>
<path d="M1412.7733732467764 59.5 L1429.5467464935527 59.5 A15 15 0 0 1 1429.5467464935527 90.5 L1412.7733732467764 90.5 A15 15 0 0 1 1412.7733732467764 59.5" fill="#000" transform="matrix(1,0,0,1,-444.5120544433594,0)" opacity="1" style="transform:matrix(1, 0, 0, 1, -444.512, 0);animation-play-state:paused" ></path>
<path d="M1666 89.5 L225.44971578815444 89.5 A15 15 0 0 0 225.44971578815444 120.5 L1666 120.5" fill="#fff" transform="matrix(1,0,0,1,-1.3745651245117188,0)" style="transform:matrix(1, 0, 0, 1, -1.37457, 0);animation-play-state:paused" ></path>
<path d="M301.0606007162903 89.5 L317.84988296670724 89.5 A15 15 0 0 1 317.84988296670724 120.5 L301.0606007162903 120.5 A15 15 0 0 1 301.0606007162903 89.5" fill="#fff" transform="matrix(1,0,0,1,0,0)" opacity="0.816327" style="transform:matrix(1, 0, 0, 1, 0, 0);opacity:0.816327;animation-play-state:paused" ></path>
<path d="M1666 119.5 L256.4295185621047 119.5 A15 15 0 0 1 256.4295185621047 150.5 L1666 150.5" fill="#fff" transform="matrix(1,0,0,1,28.941650390625,0)" style="transform:matrix(1, 0, 0, 1, 28.9417, 0);animation-play-state:paused" ></path>
<path d="M1431.0539939088148 119.5 L1466.1079878176297 119.5 A15 15 0 0 1 1466.1079878176297 150.5 L1431.0539939088148 150.5 A15 15 0 0 1 1431.0539939088148 119.5" fill="#000" transform="matrix(1,0,0,1,-1114.7301025390625,0)" opacity="0.408163" style="transform:matrix(1, 0, 0, 1, -1114.73, 0);opacity:0.408163;animation-play-state:paused" ></path>
<path d="M1666 149.5 L202.39743099890325 149.5 A15 15 0 0 0 202.39743099890325 180.5 L1666 180.5" fill="#fff" transform="matrix(1,0,0,1,-22.941194534301758,0)" style="transform:matrix(1, 0, 0, 1, -22.9412, 0);animation-play-state:paused" ></path>
<path d="M325.8942666732389 149.5 L353.7958332765924 149.5 A15 15 0 0 1 353.7958332765924 180.5 L325.8942666732389 180.5 A15 15 0 0 1 325.8942666732389 149.5" fill="#fff" transform="matrix(1,0,0,1,0,0)" opacity="1" style="transform:matrix(1, 0, 0, 1, 0, 0);animation-play-state:paused" ></path>
<path d="M1666 179.5 L248.50768011883474 179.5 A15 15 0 0 1 248.50768011883474 210.5 L1666 210.5" fill="#fff" transform="matrix(1,0,0,1,0.8244581818580627,0)" style="transform:matrix(1, 0, 0, 1, 0.824458, 0);animation-play-state:paused" ></path>
<path d="M1421.8760700258492 179.5 L1447.7521400516985 179.5 A15 15 0 0 1 1447.7521400516985 210.5 L1421.8760700258492 210.5 A15 15 0 0 1 1421.8760700258492 179.5" fill="#000" transform="matrix(1,0,0,1,-1347.64501953125,0)" opacity="0.408163" style="transform:matrix(1, 0, 0, 1, -1347.65, 0);opacity:0.408163;animation-play-state:paused" ></path>
<path d="M1666 209.5 L221.3250641371285 209.5 A15 15 0 0 0 221.3250641371285 240.5 L1666 240.5" fill="#fff" transform="matrix(1,0,0,1,-43.556846618652344,0)" style="transform:matrix(1, 0, 0, 1, -43.5568, 0);animation-play-state:paused" ></path>
<path d="M297.7370835644399 209.5 L325.2625659871902 209.5 A15 15 0 0 1 325.2625659871902 240.5 L297.7370835644399 240.5 A15 15 0 0 1 297.7370835644399 209.5" fill="#fff" transform="matrix(1,0,0,1,0,0)" opacity="1" style="transform:matrix(1, 0, 0, 1, 0, 0);animation-play-state:paused" ></path>
<path d="M1666 239.5 L266.56022408231934 239.5 A15 15 0 0 1 266.56022408231934 270.5 L1666 270.5" fill="#fff" transform="matrix(1,0,0,1,28.6590576171875,0)" style="transform:matrix(1, 0, 0, 1, 28.6591, 0);animation-play-state:paused" ></path>
<path d="M1423.4658987427604 239.5 L1450.9317974855207 239.5 A15 15 0 0 1 1450.9317974855207 270.5 L1423.4658987427604 270.5 A15 15 0 0 1 1423.4658987427604 239.5" fill="#000" transform="matrix(1,0,0,1,-265.5210266113281,0)" opacity="1" style="transform:matrix(1, 0, 0, 1, -265.521, 0);animation-play-state:paused" ></path>
<path d="M1666 269.5 L244.3323815902968 269.5 A15 15 0 0 0 244.3323815902968 300.5 L1666 300.5" fill="#fff" transform="matrix(1,0,0,1,-39.56508255004883,0)" style="transform:matrix(1, 0, 0, 1, -39.5651, 0);animation-play-state:paused" ></path>
<path d="M321.5170433143603 269.5 L354.1820821310935 269.5 A15 15 0 0 1 354.1820821310935 300.5 L321.5170433143603 300.5 A15 15 0 0 1 321.5170433143603 269.5" fill="#fff" transform="matrix(1,0,0,1,0,0)" opacity="0.612245" style="transform:matrix(1, 0, 0, 1, 0, 0);opacity:0.612245;animation-play-state:paused" ></path>
<path d="M1666 299.5 L270.25662987635087 299.5 A15 15 0 0 1 270.25662987635087 330.5 L1666 330.5" fill="#fff" transform="matrix(1,0,0,1,11.069992065429688,0)" style="transform:matrix(1, 0, 0, 1, 11.07, 0);animation-play-state:paused" ></path>
<path d="M1416.4063360723517 299.5 L1436.8126721447034 299.5 A15 15 0 0 1 1436.8126721447034 330.5 L1416.4063360723517 330.5 A15 15 0 0 1 1416.4063360723517 299.5" fill="#000" transform="matrix(1,0,0,1,-635.1829223632812,0)" opacity="0.816327" style="transform:matrix(1, 0, 0, 1, -635.183, 0);opacity:0.816327;animation-play-state:paused" ></path>
<path d="M1666 329.5 L217.66596196344426 329.5 A15 15 0 0 0 217.66596196344426 360.5 L1666 360.5" fill="#fff" transform="matrix(1,0,0,1,-1.5330801010131836,0)" style="transform:matrix(1, 0, 0, 1, -1.53308, 0);animation-play-state:paused" ></path>
<path d="M351.6263414666623 329.5 L372.16562413576116 329.5 A15 15 0 0 1 372.16562413576116 360.5 L351.6263414666623 360.5 A15 15 0 0 1 351.6263414666623 329.5" fill="#fff" transform="matrix(1,0,0,1,0,0)" opacity="0.408163" style="transform:matrix(1, 0, 0, 1, 0, 0);opacity:0.408163;animation-play-state:paused" ></path>
<path d="M1666 359.5 L277.6190059377468 359.5 A15 15 0 0 1 277.6190059377468 390.5 L1666 390.5" fill="#fff" transform="matrix(1,0,0,1,9.151089668273926,0)" style="transform:matrix(1, 0, 0, 1, 9.15109, 0);animation-play-state:paused" ></path>
<path d="M1424.3263118645575 359.5 L1452.652623729115 359.5 A15 15 0 0 1 1452.652623729115 390.5 L1424.3263118645575 390.5 A15 15 0 0 1 1424.3263118645575 359.5" fill="#000" transform="matrix(1,0,0,1,-1175.946533203125,0)" opacity="0.408163" style="transform:matrix(1, 0, 0, 1, -1175.95, 0);opacity:0.408163;animation-play-state:paused" ></path>
<path d="M1666 389.5 L258.1179228186488 389.5 A15 15 0 0 0 258.1179228186488 420.5 L1666 420.5" fill="#fff" transform="matrix(1,0,0,1,-24.743846893310547,0)" style="transform:matrix(1, 0, 0, 1, -24.7438, 0);animation-play-state:paused" ></path>
<path d="M384.3282697198647 389.5 L404.9285057180796 389.5 A15 15 0 0 1 404.9285057180796 420.5 L384.3282697198647 420.5 A15 15 0 0 1 384.3282697198647 389.5" fill="#fff" transform="matrix(1,0,0,1,0,0)" opacity="0.612244" style="transform:matrix(1, 0, 0, 1, 0, 0);opacity:0.612244;animation-play-state:paused" ></path>
<path d="M1666 419.5 L302.12786372758364 419.5 A15 15 0 0 1 302.12786372758364 450.5 L1666 450.5" fill="#fff" transform="matrix(1,0,0,1,36.24044418334961,0)" style="transform:matrix(1, 0, 0, 1, 36.2404, 0);animation-play-state:paused" ></path>
<path d="M1406.1770410854097 419.5 L1416.3540821708193 419.5 A15 15 0 0 1 1416.3540821708193 450.5 L1406.1770410854097 450.5 A15 15 0 0 1 1406.1770410854097 419.5" fill="#000" transform="matrix(1,0,0,1,0,0)" opacity="1" style="transform:matrix(1, 0, 0, 1, 0, 0);animation-play-state:paused" ></path>
<path d="M1666 449.5 L253.04799823986332 449.5 A15 15 0 0 0 253.04799823986332 480.5 L1666 480.5" fill="#fff" transform="matrix(1,0,0,1,-30.311817169189453,0)" style="transform:matrix(1, 0, 0, 1, -30.3118, 0);animation-play-state:paused" ></path>
<path d="M401.67021573881595 449.5 L428.5603191025828 449.5 A15 15 0 0 1 428.5603191025828 480.5 L401.67021573881595 480.5 A15 15 0 0 1 401.67021573881595 449.5" fill="#fff" transform="matrix(1,0,0,1,0,0)" opacity="1" style="transform:matrix(1, 0, 0, 1, 0, 0);animation-play-state:paused" ></path>
<path d="M1666 479.5 L303.29072521964144 479.5 A15 15 0 0 1 303.29072521964144 510.5 L1666 510.5" fill="#fff" transform="matrix(1,0,0,1,0.9676286578178406,0)" style="transform:matrix(1, 0, 0, 1, 0.967629, 0);animation-play-state:paused" ></path>
<path d="M1412.8749380340369 479.5 L1429.7498760680737 479.5 A15 15 0 0 1 1429.7498760680737 510.5 L1412.8749380340369 510.5 A15 15 0 0 1 1412.8749380340369 479.5" fill="#000" transform="matrix(1,0,0,1,-445.1692810058594,0)" opacity="1" style="transform:matrix(1, 0, 0, 1, -445.169, 0);animation-play-state:paused" ></path>
<path d="M1666 509.5 L271.2354929332496 509.5 A15 15 0 0 0 271.2354929332496 540.5 L1666 540.5" fill="#fff" transform="matrix(1,0,0,1,-1.4881057739257812,0)" style="transform:matrix(1, 0, 0, 1, -1.48811, 0);animation-play-state:paused" ></path>
<path d="M341.2053543451111 509.5 L381.1073881985858 509.5 A15 15 0 0 1 381.1073881985858 540.5 L341.2053543451111 540.5 A15 15 0 0 1 341.2053543451111 509.5" fill="#fff" transform="matrix(1,0,0,1,0,0)" opacity="0.204082" style="transform:matrix(1, 0, 0, 1, 0, 0);opacity:0.204082;animation-play-state:paused" ></path>
<path d="M1666 539.5 L299.5537459070581 539.5 A15 15 0 0 1 299.5537459070581 570.5 L1666 570.5" fill="#fff" transform="matrix(1,0,0,1,12.207262992858887,0)" style="transform:matrix(1, 0, 0, 1, 12.2073, 0);animation-play-state:paused" ></path>
<path d="M1422.585023238944 539.5 L1449.1700464778878 539.5 A15 15 0 0 1 1449.1700464778878 570.5 L1422.585023238944 570.5 A15 15 0 0 1 1422.585023238944 539.5" fill="#000" transform="matrix(1,0,0,1,-831.7437133789062,0)" opacity="0.612245" style="transform:matrix(1, 0, 0, 1, -831.744, 0);opacity:0.612245;animation-play-state:paused" ></path>
<path d="M1666 569.5 L260.27246751900134 569.5 A15 15 0 0 0 260.27246751900134 600.5 L1666 600.5" fill="#fff" transform="matrix(1,0,0,1,-1.5238800048828125,0)" style="transform:matrix(1, 0, 0, 1, -1.52388, 0);animation-play-state:paused" ></path>
<path d="M348.98626504796835 569.5 L370.91599769282664 569.5 A15 15 0 0 1 370.91599769282664 600.5 L348.98626504796835 600.5 A15 15 0 0 1 348.98626504796835 569.5" fill="#fff" transform="matrix(1,0,0,1,0,0)" opacity="0.408163" style="transform:matrix(1, 0, 0, 1, 0, 0);opacity:0.408163;animation-play-state:paused" ></path>
<path d="M1666 599.5 L289.1637471103086 599.5 A15 15 0 0 1 289.1637471103086 630.5 L1666 630.5" fill="#fff" transform="matrix(1,0,0,1,29.1995906829834,0)" style="transform:matrix(1, 0, 0, 1, 29.1996, 0);animation-play-state:paused" ></path>
<path d="M1417.400109353821 599.5 L1438.8002187076422 599.5 A15 15 0 0 1 1438.8002187076422 630.5 L1417.400109353821 630.5 A15 15 0 0 1 1417.400109353821 599.5" fill="#000" transform="matrix(1,0,0,1,-1101.59814453125,0)" opacity="0.408163" style="transform:matrix(1, 0, 0, 1, -1101.6, 0);opacity:0.408163;animation-play-state:paused" ></path></g></mask></defs>


<rect x="0" y="0" width="1366" height="625" fill="url(#ldbk-photon-9ybnknbpz0r-lg)" mask="url(#ldbk-photon-9ybnknbpz0r-mask)" style="animation-play-state:paused" ></rect></g></svg>