<?xml version="1.0" encoding="utf-8"?><svg xmlns="http://www.w3.org/2000/svg" xmlns:xlink="http://www.w3.org/1999/xlink" width="1366" height="625" preserveAspectRatio="xMidYMid" viewBox="0 0 1366 625" style="z-index:1;margin-right:-2px;display:block;background-repeat-y:initial;background-repeat-x:initial;background-color:rgb(255, 255, 255);animation-play-state:paused" ><g transform="" style="animation-play-state:paused" ><path id="path0" d="M 79.99084086634417 81.20889814240235
c 0 31.19861021625956 -7.633702499723083 8.961302934457533 -16.595005434180617 8.961302934457533
S 46.80082999798293 112.40750835866191 46.80082999798293 81.20889814240235
s 7.633702499723083 -8.961302934457533 16.595005434180617 -8.961302934457533
S 79.99084086634417 50.01028792614279 79.99084086634417 81.20889814240235
z" fill="none" stroke="none" style="animation-play-state:paused" ></path>


<circle cx="0" cy="0" r="7.879671212024104" fill="#e0ff77" transform="translate(53.790992736816406 95.91166687011719)" style="animation-play-state:paused" ></circle>
<path id="path1" d="M 27.769890509353175 397.0563432281922
c 0 31.71589485619761 -7.760272145665372 9.109884692737612 -16.870156838402984 9.109884692737612
S -5.970423167452793 428.7722380843898 -5.970423167452793 397.0563432281922
s 7.760272145665372 -9.109884692737612 16.870156838402984 -9.109884692737612
S 27.769890509353175 365.34044837199457 27.769890509353175 397.0563432281922
z" fill="none" stroke="none" style="animation-play-state:paused" ></path>


<circle cx="0" cy="0" r="4.647912003619245" fill="#de9dd6" transform="translate(20.61205291748047 411.95965576171875)" style="animation-play-state:paused" ></circle>
<path id="path2" d="M 1023.7350300298248 213.41889574683285
c 0 27.22807882293851 -6.662189499229635 7.820831151269573 -14.483020650499208 7.820831151269573
S 994.7689887288265 240.64697456977134 994.7689887288265 213.41889574683285
s 6.662189499229635 -7.820831151269573 14.483020650499208 -7.820831151269573
S 1023.7350300298248 186.19081692389435 1023.7350300298248 213.41889574683285
z" fill="none" stroke="none" style="animation-play-state:paused" ></path>


<circle cx="0" cy="0" r="4.608068134925383" fill="#e0ff77" transform="translate(1003.5863037109375 202.90708923339844)" style="animation-play-state:paused" ></circle>
<path id="path3" d="M 570.4798096357237 427.64832647320003
c 0 19.732112937225626 -4.828070186767972 5.667734567075446 -10.49580475384342 5.667734567075446
S 549.4882001280367 447.38043941042565 549.4882001280367 427.64832647320003
s 4.828070186767972 -5.667734567075446 10.49580475384342 -5.667734567075446
S 570.4798096357237 407.9162135359744 570.4798096357237 427.64832647320003
z" fill="none" stroke="none" style="animation-play-state:paused" ></path>


<circle cx="0" cy="0" r="7.248906709385146" fill="#de9dd6" transform="translate(569.3268432617188 417.7884521484375)" style="animation-play-state:paused" ></circle>
<path id="path4" d="M 675.8253795892618 151.353865953396
c 0 22.889004922862103 -5.600501204530088 6.574501414013583 -12.17500261854367 6.574501414013583
S 651.4753743521745 174.2428708762581 651.4753743521745 151.353865953396
s 5.600501204530088 -6.574501414013583 12.17500261854367 -6.574501414013583
S 675.8253795892618 128.46486103053388 675.8253795892618 151.353865953396
z" fill="none" stroke="none" style="animation-play-state:paused" ></path>


<circle cx="0" cy="0" r="4.621984918136843" fill="#ff708e" transform="translate(656.9324340820312 140.8445281982422)" style="animation-play-state:paused" ></circle>
<path id="path5" d="M 111.35908812402829 434.113390331066
c 0 31.76319648602893 -7.771845948709205 9.123471331093416 -16.895317279802622 9.123471331093416
S 77.56845356442304 465.8765868170949 77.56845356442304 434.113390331066
s 7.771845948709205 -9.123471331093416 16.895317279802622 -9.123471331093416
S 111.35908812402829 402.3501938450371 111.35908812402829 434.113390331066
z" fill="none" stroke="none" style="animation-play-state:paused" ></path>


<circle cx="0" cy="0" r="4.705963093460346" fill="#e0ff77" transform="translate(77.58748626708984 431.53582763671875)" style="animation-play-state:paused" ></circle>
<path id="path6" d="M 1221.8380468493606 203.58035190056617
c 0 37.554813524457785 -9.188943734707756 10.78702090596128 -19.975964640669034 10.78702090596128
S 1181.8861175680227 241.13516542502396 1181.8861175680227 203.58035190056617
s 9.188943734707756 -10.78702090596128 19.975964640669034 -10.78702090596128
S 1221.8380468493606 166.0255383761084 1221.8380468493606 203.58035190056617
z" fill="none" stroke="none" style="animation-play-state:paused" ></path>


<circle cx="0" cy="0" r="6.369324352393152" fill="#ff708e" transform="translate(1200.5423583984375 192.66409301757812)" style="animation-play-state:paused" ></circle>
<path id="path7" d="M 796.0089218496364 420.7905075128393
c 0 19.730508752738192 -4.827677673542323 5.6672737906801185 -10.494951464222442 5.6672737906801185
S 775.0190189211914 440.52101626557754 775.0190189211914 420.7905075128393
s 4.827677673542323 -5.6672737906801185 10.494951464222442 -5.6672737906801185
S 796.0089218496364 401.0599987601011 796.0089218496364 420.7905075128393
z" fill="none" stroke="none" style="animation-play-state:paused" ></path>


<circle cx="0" cy="0" r="5.7796070015001995" fill="#9df871" transform="translate(788.8225708007812 427.7920227050781)" style="animation-play-state:paused" ></circle>
<path id="path8" d="M 166.21333134965954 410.6057895262173
c 0 33.758774599247275 -8.260125699815822 9.696669299783792 -17.956794999599616 9.696669299783792
S 130.2997413504603 444.36456412546454 130.2997413504603 410.6057895262173
s 8.260125699815822 -9.696669299783792 17.956794999599616 -9.696669299783792
S 166.21333134965954 376.84701492697 166.21333134965954 410.6057895262173
z" fill="none" stroke="none" style="animation-play-state:paused" ></path>


<circle cx="0" cy="0" r="5.0024605182822235" fill="#e0ff77" transform="translate(160.44387817382812 393.3509826660156)" style="animation-play-state:paused" ></circle>
<path id="path9" d="M 627.6731449203163 385.9539080264617
c 0 22.59409442538637 -5.528342253020069 6.489793079632255 -12.018135332652324 6.489793079632255
S 603.6368742550115 408.54800245184805 603.6368742550115 385.9539080264617
s 5.528342253020069 -6.489793079632255 12.018135332652324 -6.489793079632255
S 627.6731449203163 363.35981360107536 627.6731449203163 385.9539080264617
z" fill="none" stroke="none" style="animation-play-state:paused" ></path>


<circle cx="0" cy="0" r="4.374073336183779" fill="#51cacc" transform="translate(605.7106323242188 373.9780578613281)" style="animation-play-state:paused" ></circle>
<path id="path10" d="M 636.9711074006191 358.6749888212944
c 0 37.20574492328932 -9.103533332294194 10.686756520519275 -19.79028985281347 10.686756520519275
S 597.3905276949922 395.8807337445837 597.3905276949922 358.6749888212944
s 9.103533332294194 -10.686756520519275 19.79028985281347 -10.686756520519275
S 636.9711074006191 321.46924389800506 636.9711074006191 358.6749888212944
z" fill="none" stroke="none" style="animation-play-state:paused" ></path>


<circle cx="0" cy="0" r="6.247705311341176" fill="#e0ff77" transform="translate(636.357421875 371.6100769042969)" style="animation-play-state:paused" ></circle>
<path id="path11" d="M 839.7741874729167 138.34565089882568
c 0 29.43609984991436 -7.202449963276917 8.455049956890296 -15.657499920167213 8.455049956890296
S 808.4591876325823 167.78175074874005 808.4591876325823 138.34565089882568
s 7.202449963276917 -8.455049956890296 15.657499920167213 -8.455049956890296
S 839.7741874729167 108.90955104891133 839.7741874729167 138.34565089882568
z" fill="none" stroke="none" style="animation-play-state:paused" ></path>


<circle cx="0" cy="0" r="4.64151542834919" fill="#e0ff77" transform="translate(839.773681640625 138.6079559326172)" style="animation-play-state:paused" ></circle>
<path id="path12" d="M 503.22719641437146 427.4655023350253
c 0 20.10907931643357 -4.920306641255022 5.7760121440819825 -10.696318785337004 5.7760121440819825
S 481.8345588436975 447.57458165145886 481.8345588436975 427.4655023350253
s 4.920306641255022 -5.7760121440819825 10.696318785337004 -5.7760121440819825
S 503.22719641437146 407.3564230185917 503.22719641437146 427.4655023350253
z" fill="none" stroke="none" style="animation-play-state:paused" ></path>


<circle cx="0" cy="0" r="6.035105425874395" fill="#de9dd6" transform="translate(497.98236083984375 436.3094177246094)" style="animation-play-state:paused" ></circle>
<path id="path13" d="M 1137.840260366908 399.75264607216485
c 0 23.88647746654214 -5.844563635430522 6.861009485070614 -12.705573120501137 6.861009485070614
S 1112.4291141259057 423.639123538707 1112.4291141259057 399.75264607216485
s 5.844563635430522 -6.861009485070614 12.705573120501137 -6.861009485070614
S 1137.840260366908 375.8661686056227 1137.840260366908 399.75264607216485
z" fill="none" stroke="none" style="animation-play-state:paused" ></path>


<circle cx="0" cy="0" r="6.905672605263682" fill="#de9dd6" transform="translate(1131.3316650390625 389.4894104003906)" style="animation-play-state:paused" ></circle>
<path id="path14" d="M 275.7574114376809 409.92567699985364
c 0 36.11555011039189 -8.836783537649078 10.373615457240222 -19.2103989948893 10.373615457240222
S 237.3366134479023 446.04122711024553 237.3366134479023 409.92567699985364
s 8.836783537649078 -10.373615457240222 19.2103989948893 -10.373615457240222
S 275.7574114376809 373.81012688946174 275.7574114376809 409.92567699985364
z" fill="none" stroke="none" style="animation-play-state:paused" ></path>


<circle cx="0" cy="0" r="7.55516531116602" fill="#9df871" transform="translate(275.5083923339844 418.8622131347656)" style="animation-play-state:paused" ></circle>
<path id="path15" d="M 332.29269329568655 127.2588434127353
c 0 25.8289222033106 -6.319842666767486 7.418945739248789 -13.738788406016276 7.418945739248789
S 304.815116483654 153.0877656160459 304.815116483654 127.2588434127353
s 6.319842666767486 -7.418945739248789 13.738788406016276 -7.418945739248789
S 332.29269329568655 101.4299212094247 332.29269329568655 127.2588434127353
z" fill="none" stroke="none" style="animation-play-state:paused" ></path>


<circle cx="0" cy="0" r="4.5971338818084595" fill="#e0ff77" transform="translate(326.8606872558594 139.7208709716797)" style="animation-play-state:paused" ></circle>
<path id="path16" d="M 590.5127404259321 153.6484616060374
c 0 33.6919985770133 -8.243786885864955 9.677488952971906 -17.921275838836863 9.677488952971906
S 554.6701887482583 187.34046018305068 554.6701887482583 153.6484616060374
s 8.243786885864955 -9.677488952971906 17.921275838836863 -9.677488952971906
S 590.5127404259321 119.95646302902409 590.5127404259321 153.6484616060374
z" fill="none" stroke="none" style="animation-play-state:paused" ></path>


<circle cx="0" cy="0" r="4.801264321051296" fill="#e0ff77" transform="translate(561.7000122070312 169.94866943359375)" style="animation-play-state:paused" ></circle>
<path id="path17" d="M 891.1662528177682 74.20214978809501
c 0 21.35457191980376 -5.225054831441345 6.1337600195181015 -11.358814850959448 6.1337600195181015
S 868.4486231158493 95.55672170789877 868.4486231158493 74.20214978809501
s 5.225054831441345 -6.1337600195181015 11.358814850959448 -6.1337600195181015
S 891.1662528177682 52.84757786829125 891.1662528177682 74.20214978809501
z" fill="none" stroke="none" style="animation-play-state:paused" ></path>


<circle cx="0" cy="0" r="7.648040682978861" fill="#de9dd6" transform="translate(869.128662109375 83.41238403320312)" style="animation-play-state:paused" ></circle>
<path id="path18" d="M 651.5900539274182 408.8156015237653
c 0 22.906780850350472 -5.604850633596392 6.5796072655261995 -12.184457899122592 6.5796072655261995
S 627.2211381291731 431.72238237411574 627.2211381291731 408.8156015237653
s 5.604850633596392 -6.5796072655261995 12.184457899122592 -6.5796072655261995
S 651.5900539274182 385.9088206734148 651.5900539274182 408.8156015237653
z" fill="none" stroke="none" style="animation-play-state:paused" ></path>


<circle cx="0" cy="0" r="7.454524145074817" fill="#e0ff77" transform="translate(637.7271728515625 415.7242736816406)" style="animation-play-state:paused" ></circle>
<path id="path19" d="M 461.9572705444458 112.81410148364012
c 0 21.678124609917937 -5.304221979022474 6.226695366678557 -11.530917345701031 6.226695366678557
S 438.89543585304375 134.49222609355806 438.89543585304375 112.81410148364012
s 5.304221979022474 -6.226695366678557 11.530917345701031 -6.226695366678557
S 461.9572705444458 91.13597687372217 461.9572705444458 112.81410148364012
z" fill="none" stroke="none" style="animation-play-state:paused" ></path>


<circle cx="0" cy="0" r="5.122049857845577" fill="#9df871" transform="translate(461.81744384765625 107.59932708740234)" style="animation-play-state:paused" ></circle>
<path id="path20" d="M 1001.4034402136324 608.6614690680129
c 0 25.178438622506455 -6.160681790613281 7.232104710719939 -13.39278650133322 7.232104710719939
S 974.6178672109659 633.8399076905193 974.6178672109659 608.6614690680129
s 6.160681790613281 -7.232104710719939 13.39278650133322 -7.232104710719939
S 1001.4034402136324 583.4830304455065 1001.4034402136324 608.6614690680129
z" fill="none" stroke="none" style="animation-play-state:paused" ></path>


<circle cx="0" cy="0" r="4.931566370001691" fill="#51cacc" transform="translate(1000.4246826171875 597.1878051757812)" style="animation-play-state:paused" ></circle>
<path id="path21" d="M 68.78884156808998 163.75325305421393
c 0 30.97426825383981 -7.578810317428888 8.896864285677392 -16.47567460310628 8.896864285677392
S 35.83749236187742 194.72752130805372 35.83749236187742 163.75325305421393
s 7.578810317428888 -8.896864285677392 16.47567460310628 -8.896864285677392
S 68.78884156808998 132.77898480037413 68.78884156808998 163.75325305421393
z" fill="none" stroke="none" style="animation-play-state:paused" ></path>


<circle cx="0" cy="0" r="5.657918020759936" fill="#9df871" transform="translate(68.669189453125 169.73606872558594)" style="animation-play-state:paused" ></circle>
<path id="path22" d="M 681.3341612964809 151.28346365148138
c 0 35.841606584817754 -8.769754802668173 10.294929550958292 -19.064684353626465 10.294929550958292
S 643.204792589228 187.12507023629914 643.204792589228 151.28346365148138
s 8.769754802668173 -10.294929550958292 19.064684353626465 -10.294929550958292
S 681.3341612964809 115.44185706666363 681.3341612964809 151.28346365148138
z" fill="none" stroke="none" style="animation-play-state:paused" ></path>


<circle cx="0" cy="0" r="5.239952011350409" fill="#de9dd6" transform="translate(643.345458984375 158.24671936035156)" style="animation-play-state:paused" ></circle>
<path id="path23" d="M 301.21772861568735 105.86245229324051
c 0 26.814451670103754 -6.560982855450917 7.702023352051079 -14.263006207501995 7.702023352051079
S 272.6917162006834 132.67690396334427 272.6917162006834 105.86245229324051
s 6.560982855450917 -7.702023352051079 14.263006207501995 -7.702023352051079
S 301.21772861568735 79.04800062313676 301.21772861568735 105.86245229324051
z" fill="none" stroke="none" style="animation-play-state:paused" ></path>


<circle cx="0" cy="0" r="7.980573096783224" fill="#e0ff77" transform="translate(297.0124206542969 119.78931427001953)" style="animation-play-state:paused" ></circle>
<path id="path24" d="M 1245.695581048984 302.4046562830727
c 0 32.166867020979915 -7.870616398750404 9.239419250706998 -17.1100356494574 9.239419250706998
S 1211.4755097500693 334.5715233040526 1211.4755097500693 302.4046562830727
s 7.870616398750404 -9.239419250706998 17.1100356494574 -9.239419250706998
S 1245.695581048984 270.2377892620928 1245.695581048984 302.4046562830727
z" fill="none" stroke="none" style="animation-play-state:paused" ></path>


<circle cx="0" cy="0" r="4.53399171535044" fill="#ff708e" transform="translate(1211.4832763671875 304.0740966796875)" style="animation-play-state:paused" ></circle>
<path id="path25" d="M 898.5308565636036 85.45694496551654
c 0 21.009025073011856 -5.140506134885879 6.034507201822554 -11.175013336708432 6.034507201822554
S 876.1808298901868 106.4659700385284 876.1808298901868 85.45694496551654
s 5.140506134885879 -6.034507201822554 11.175013336708432 -6.034507201822554
S 898.5308565636036 64.44791989250469 898.5308565636036 85.45694496551654
z" fill="none" stroke="none" style="animation-play-state:paused" ></path>


<circle cx="0" cy="0" r="7.66599209442814" fill="#9df871" transform="translate(898.4559936523438 81.5390625)" style="animation-play-state:paused" ></circle>
<path id="path26" d="M 797.9644254751412 318.2817732289129
c 0 19.843941277346868 -4.855432440201893 5.699855473280484 -10.555287913482376 5.699855473280484
S 776.8538496481764 338.1257145062598 776.8538496481764 318.2817732289129
s 4.855432440201893 -5.699855473280484 10.555287913482376 -5.699855473280484
S 797.9644254751412 298.43783195156607 797.9644254751412 318.2817732289129
z" fill="none" stroke="none" style="animation-play-state:paused" ></path>


<circle cx="0" cy="0" r="7.8602240746257905" fill="#e0ff77" transform="translate(795.9791870117188 307.7164306640625)" style="animation-play-state:paused" ></circle>
<path id="path27" d="M 1131.5578579122914 314.92954673860373
c 0 34.1768922265026 -8.362431076697444 9.816766916123088 -18.179197992820534 9.816766916123088
S 1095.1994619266504 349.10643896510635 1095.1994619266504 314.92954673860373
s 8.362431076697444 -9.816766916123088 18.179197992820534 -9.816766916123088
S 1131.5578579122914 280.7526545121011 1131.5578579122914 314.92954673860373
z" fill="none" stroke="none" style="animation-play-state:paused" ></path>


<circle cx="0" cy="0" r="7.928370189704291" fill="#51cacc" transform="translate(1102.755859375 331.11956787109375)" style="animation-play-state:paused" ></circle>
<path id="path28" d="M 784.0631438479327 42.86941455669486
c 0 21.387881038902357 -5.233204935050575 6.143327532450677 -11.376532467501253 6.143327532450677
S 761.3100789129301 64.25729559559721 761.3100789129301 42.86941455669486
s 5.233204935050575 -6.143327532450677 11.376532467501253 -6.143327532450677
S 784.0631438479327 21.481533517792506 784.0631438479327 42.86941455669486
z" fill="none" stroke="none" style="animation-play-state:paused" ></path>


<circle cx="0" cy="0" r="4.946452127590567" fill="#51cacc" transform="translate(783.9259643554688 48.003440856933594)" style="animation-play-state:paused" ></circle>
<path id="path29" d="M 1157.5421671197273 243.11480368284015
c 0 20.005252857602052 -4.894902294945182 5.746189650587823 -10.641091945533006 5.746189650587823
S 1136.2599832286614 263.1200565404422 1136.2599832286614 243.11480368284015
s 4.894902294945182 -5.746189650587823 10.641091945533006 -5.746189650587823
S 1157.5421671197273 223.1095508252381 1157.5421671197273 243.11480368284015
z" fill="none" stroke="none" style="animation-play-state:paused" ></path>


<circle cx="0" cy="0" r="5.199706261779269" fill="#de9dd6" transform="translate(1150.2069091796875 250.17884826660156)" style="animation-play-state:paused" ></circle>
<path id="path30" d="M 224.14365100110976 548.0969956264249
c 0 32.039319501882595 -7.839407963226591 9.202783261179043 -17.042191224405634 9.202783261179043
S 190.0592685522985 580.1363151283075 190.0592685522985 548.0969956264249
s 7.839407963226591 -9.202783261179043 17.042191224405634 -9.202783261179043
S 224.14365100110976 516.0576761245424 224.14365100110976 548.0969956264249
z" fill="none" stroke="none" style="animation-play-state:paused" ></path>


<circle cx="0" cy="0" r="5.376697323820568" fill="#e0ff77" transform="translate(221.93798828125 564.5540161132812)" style="animation-play-state:paused" ></circle>
<path id="path31" d="M 849.7469625217249 280.04842320280767
c 0 19.205550939811804 -4.6992305491028885 5.516488035903391 -10.215718585006279 5.516488035903391
S 829.3155253517124 299.2539741426195 829.3155253517124 280.04842320280767
s 4.6992305491028885 -5.516488035903391 10.215718585006279 -5.516488035903391
S 849.7469625217249 260.84287226299585 849.7469625217249 280.04842320280767
z" fill="none" stroke="none" style="animation-play-state:paused" ></path>


<circle cx="0" cy="0" r="4.029329874930404" fill="#51cacc" transform="translate(845.0951538085938 271.2929382324219)" style="animation-play-state:paused" ></circle>
<path id="path32" d="M 613.6849244549381 247.95206712462462
c 0 20.646804570647518 -5.051877714094605 5.930465142632798 -10.982342856727403 5.930465142632798
S 591.7202387414833 268.5988716952721 591.7202387414833 247.95206712462462
s 5.051877714094605 -5.930465142632798 10.982342856727403 -5.930465142632798
S 613.6849244549381 227.30526255397712 613.6849244549381 247.95206712462462
z" fill="none" stroke="none" style="animation-play-state:paused" ></path>


<circle cx="0" cy="0" r="5.696546743732445" fill="#ff708e" transform="translate(613.2982177734375 255.46095275878906)" style="animation-play-state:paused" ></circle>
<path id="path33" d="M 1156.1294896016745 535.7902314048995
c 0 36.49484115695022 -8.929588793721862 10.482560757847404 -19.412149551569268 10.482560757847404
S 1117.3051904985361 572.2850725618497 1117.3051904985361 535.7902314048995
s 8.929588793721862 -10.482560757847404 19.412149551569268 -10.482560757847404
S 1156.1294896016745 499.2953902479493 1156.1294896016745 535.7902314048995
z" fill="none" stroke="none" style="animation-play-state:paused" ></path>


<circle cx="0" cy="0" r="5.914997826136698" fill="#de9dd6" transform="translate(1155.580810546875 548.0538940429688)" style="animation-play-state:paused" ></circle>
<path id="path34" d="M 1010.6982326437711 372.38899769001705
c 0 25.09552165805592 -6.140393597183895 7.2082881358245725 -13.348681733008467 7.2082881358245725
S 984.0008691777542 397.484519348073 984.0008691777542 372.38899769001705
s 6.140393597183895 -7.2082881358245725 13.348681733008467 -7.2082881358245725
S 1010.6982326437711 347.2934760319611 1010.6982326437711 372.38899769001705
z" fill="none" stroke="none" style="animation-play-state:paused" ></path>


<circle cx="0" cy="0" r="6.750486331687827" fill="#e0ff77" transform="translate(1009.8076782226562 361.2295837402344)" style="animation-play-state:paused" ></circle>
<path id="path35" d="M 231.3797385530292 103.1191458115979
c 0 32.18547497232784 -7.875169408122768 9.244764087796295 -17.119933495919064 9.244764087796295
S 197.13987156119106 135.30462078392574 197.13987156119106 103.1191458115979
s 7.875169408122768 -9.244764087796295 17.119933495919064 -9.244764087796295
S 231.3797385530292 70.93367083927006 231.3797385530292 103.1191458115979
z" fill="none" stroke="none" style="animation-play-state:paused" ></path>


<circle cx="0" cy="0" r="4.940686731458022" fill="#de9dd6" transform="translate(231.27117919921875 108.97443389892578)" style="animation-play-state:paused" ></circle>
<path id="path36" d="M 949.9312216890617 222.06205152020323
c 0 32.817130224875136 -8.02972335289498 9.426196979485411 -17.45592033238039 9.426196979485411
S 915.0193810243009 254.87918174507837 915.0193810243009 222.06205152020323
s 8.02972335289498 -9.426196979485411 17.45592033238039 -9.426196979485411
S 949.9312216890617 189.24492129532808 949.9312216890617 222.06205152020323
z" fill="none" stroke="none" style="animation-play-state:paused" ></path>


<circle cx="0" cy="0" r="6.593760831929979" fill="#e0ff77" transform="translate(916.1831665039062 207.4714813232422)" style="animation-play-state:paused" ></circle>
<path id="path37" d="M 1001.7095282802745 335.92272996267957
c 0 36.46390161224098 -8.922018479590879 10.473673867345815 -19.39569234693669 10.473673867345815
S 962.9181435864011 372.38663157492056 962.9181435864011 335.92272996267957
s 8.922018479590879 -10.473673867345815 19.39569234693669 -10.473673867345815
S 1001.7095282802745 299.4588283504386 1001.7095282802745 335.92272996267957
z" fill="none" stroke="none" style="animation-play-state:paused" ></path>


<circle cx="0" cy="0" r="6.367651116665784" fill="#de9dd6" transform="translate(985.3265380859375 324.7897033691406)" style="animation-play-state:paused" ></circle>
<path id="path38" d="M 1172.1794664507331 341.1648431263623
c 0 37.05986229701479 -9.067838647141915 10.644854064036162 -19.71269271117808 10.644854064036162
S 1132.754081028377 378.2247054233771 1132.754081028377 341.1648431263623
s 9.067838647141915 -10.644854064036162 19.71269271117808 -10.644854064036162
S 1172.1794664507331 304.10498082934754 1172.1794664507331 341.1648431263623
z" fill="none" stroke="none" style="animation-play-state:paused" ></path>


<circle cx="0" cy="0" r="7.809225457651735" fill="#de9dd6" transform="translate(1147.13720703125 353.706787109375)" style="animation-play-state:paused" ></circle>
<path id="path39" d="M 953.7278991819699 560.8462567347709
c 0 25.076716298133512 -6.135792285713518 7.202886596272392 -13.33867888198591 7.202886596272392
S 927.0505414179981 585.9229730329045 927.0505414179981 560.8462567347709
s 6.135792285713518 -7.202886596272392 13.33867888198591 -7.202886596272392
S 953.7278991819699 535.7695404366374 953.7278991819699 560.8462567347709
z" fill="none" stroke="none" style="animation-play-state:paused" ></path>


<circle cx="0" cy="0" r="6.817494304069415" fill="#9df871" transform="translate(936.5042724609375 552.1732177734375)" style="animation-play-state:paused" ></circle>
<path id="path40" d="M 1041.782628642485 521.5691455278962
c 0 32.58964912840911 -7.974063084610739 9.360856664543043 -17.33491974915378 9.360856664543043
S 1007.1127891441773 554.1587946563053 1007.1127891441773 521.5691455278962
s 7.974063084610739 -9.360856664543043 17.33491974915378 -9.360856664543043
S 1041.782628642485 488.9794963994871 1041.782628642485 521.5691455278962
z" fill="none" stroke="none" style="animation-play-state:paused" ></path>


<circle cx="0" cy="0" r="5.818674608909265" fill="#de9dd6" transform="translate(1039.179931640625 504.50567626953125)" style="animation-play-state:paused" ></circle>
<path id="path41" d="M 1069.290048992292 165.65537331923107
c 0 26.3320809901398 -6.4429559869491 7.5634700716359005 -14.006426058585 7.5634700716359005
S 1041.277196875122 191.9874543093709 1041.277196875122 165.65537331923107
s 6.4429559869491 -7.5634700716359005 14.006426058585 -7.5634700716359005
S 1069.290048992292 139.32329232909126 1069.290048992292 165.65537331923107
z" fill="none" stroke="none" style="animation-play-state:paused" ></path>


<circle cx="0" cy="0" r="7.352114049983682" fill="#ff708e" transform="translate(1044.0723876953125 179.6970672607422)" style="animation-play-state:paused" ></circle>
<path id="path42" d="M 674.4015386769036 421.27598471724707
c 0 23.424985804976863 -5.73164546291987 6.7284533695146305 -12.4600988324345 6.7284533695146305
S 649.4813410120346 444.70097052222394 649.4813410120346 421.27598471724707
s 5.73164546291987 -6.7284533695146305 12.4600988324345 -6.7284533695146305
S 674.4015386769036 397.8509989122702 674.4015386769036 421.27598471724707
z" fill="none" stroke="none" style="animation-play-state:paused" ></path>


<circle cx="0" cy="0" r="7.952343654347657" fill="#de9dd6" transform="translate(670.238037109375 409.40753173828125)" style="animation-play-state:paused" ></circle>
<path id="path43" d="M 1061.8739218339706 248.84679919990683
c 0 29.631438952729198 -7.250245701199696 8.511157997060515 -15.76140369826021 8.511157997060515
S 1030.3511144374502 278.47823815263604 1030.3511144374502 248.84679919990683
s 7.250245701199696 -8.511157997060515 15.76140369826021 -8.511157997060515
S 1061.8739218339706 219.2153602471776 1061.8739218339706 248.84679919990683
z" fill="none" stroke="none" style="animation-play-state:paused" ></path>


<circle cx="0" cy="0" r="6.193268382451066" fill="#e0ff77" transform="translate(1040.393310546875 259.9287414550781)" style="animation-play-state:paused" ></circle>
<path id="path44" d="M 949.7430936327662 218.805454313379
c 0 31.45353921443771 -7.696078743958163 9.034527221168279 -16.730605965126443 9.034527221168279
S 916.2818817025134 250.2589935278167 916.2818817025134 218.805454313379
s 7.696078743958163 -9.034527221168279 16.730605965126443 -9.034527221168279
S 949.7430936327662 187.35191509894128 949.7430936327662 218.805454313379
z" fill="none" stroke="none" style="animation-play-state:paused" ></path>


<circle cx="0" cy="0" r="7.304269389677542" fill="#9df871" transform="translate(916.56787109375 227.51373291015625)" style="animation-play-state:paused" ></circle>
<path id="path45" d="M 662.3091446647463 298.1307889241031
c 0 32.667870418546755 -7.993202336452929 9.383324481923005 -17.376526818375932 9.383324481923005
S 627.5560910279944 330.7986593426499 627.5560910279944 298.1307889241031
s 7.993202336452929 -9.383324481923005 17.376526818375932 -9.383324481923005
S 662.3091446647463 265.46291850555633 662.3091446647463 298.1307889241031
z" fill="none" stroke="none" style="animation-play-state:paused" ></path>


<circle cx="0" cy="0" r="7.0153289708032" fill="#51cacc" transform="translate(628.6177978515625 283.9595031738281)" style="animation-play-state:paused" ></circle></g></svg>