<?xml version="1.0" encoding="utf-8"?><svg xmlns="http://www.w3.org/2000/svg" xmlns:xlink="http://www.w3.org/1999/xlink" width="1366" height="625" preserveAspectRatio="xMidYMid" viewBox="0 0 1366 625" style="z-index:1;margin-right:-2px;display:block;background-repeat-y:initial;background-repeat-x:initial;animation-play-state:paused" ><g transform="" style="animation-play-state:paused" ><path d="M -100 414.77 C -75.69 427.43 -75.94 420.98 -57.68 420.98 S -31.84 444.86 -15.35 444.86 S 11.56 440.93 26.97 440.93 S 51.08 369.77 69.3 369.77 S 92.57 417.4 111.62 417.4 S 136.05 398.87 153.95 398.87 S 181.34 371.26 196.27 371.26 S 225.02 384.27 238.59 384.27 S 263.71 454.65 280.92 454.65 S 304.04 451.46 323.24 451.46 S 345.78 372.09 365.57 372.09 S 389.8 430.47 407.89 430.47 S 437.63 409.34 450.22 409.34 S 472.08 452.28 492.54 452.28 S 516.14 418.25 534.86 418.25 S 558.41 441.15 577.19 441.15 S 601.96 385.19 619.51 385.19 S 647.49 417.92 661.84 417.92 S 689.9 440.94 704.16 440.94 S 732.47 371.21 746.49 371.21 S 768.43 368.89 788.81 368.89 S 817.4 444.62 831.14 444.62 S 860.95 413.81 873.46 413.81 S 897.98 375.18 915.78 375.18 S 941.05 369.45 958.11 369.45 S 982.73 451.66 1000.43 451.66 S 1025.13 384.88 1042.76 384.88 S 1067.04 405.55 1085.08 405.55 S 1112.55 431.04 1127.41 431.04 S 1154.87 422.33 1169.73 422.33 S 1193.41 446.57 1212.05 446.57 S 1238.09 430.2 1254.38 430.2 S 1282.66 390.97 1296.7 390.97 S 1321.79 374.1 1339.03 374.1 S 1360.64 387.6 1381.35 387.6 S 1408.64 456.39 1423.68 456.39 S 1449.34 371.64 1466 371.64 S 1491.44 435.11 1508.32 435.11 L 1466 625 L -100 625 Z" fill="#151e2f" stroke-width="0" transform="matrix(1,0,0,1,0,0)" style="transform:matrix(1, 0, 0, 1, 0, 0);animation-play-state:paused" ></path>
<path d="M -100 489.75 C -71.32 523.62 -71.57 507.78 -51.44 507.78 S -18.24 532.3 -2.88 532.3 S 24.06 559.77 45.67 559.77 S 70.99 507.22 94.23 507.22 S 120.22 527.73 142.79 527.73 S 167.85 522.62 191.35 522.62 S 218.9 534.84 239.91 534.84 S 265.02 465.38 288.47 465.38 S 315.6 568.89 337.02 568.89 S 362.6 558.8 385.58 558.8 S 409.94 548.62 434.14 548.62 S 463.58 480.05 482.7 480.05 S 507.39 576.25 531.26 576.25 S 562.87 539.84 579.81 539.84 S 611.34 519.18 628.37 519.18 S 653.34 531.12 676.93 531.12 S 704.37 529.2 725.49 529.2 S 754.99 495.5 774.05 495.5 S 804.77 524.14 822.6 524.14 S 847.42 475.41 871.16 475.41 S 903.65 519.82 919.72 519.82 S 949.19 475.95 968.28 475.95 S 998.7 592.59 1016.84 592.59 S 1041.14 518.79 1065.4 518.79 S 1091.1 580.17 1113.95 580.17 S 1142.3 510.89 1162.51 510.89 S 1193.64 566.76 1211.07 566.76 S 1240.86 531.28 1259.63 531.28 S 1285.72 579.64 1308.19 579.64 S 1335.58 507.69 1356.74 507.69 S 1384.7 575.7 1405.3 575.7 S 1432.83 552.69 1453.86 552.69 S 1478.94 585.66 1502.42 585.66 L 1466 625 L -100 625 Z" fill="#1b2f58" stroke-width="0" transform="matrix(1,0,0,1,10,0)" style="transform:matrix(1, 0, 0, 1, 10, 0);animation-play-state:paused" ></path></g></svg>